<?xml version="1.0" encoding="UTF-8"?>
<svg width="2562px" height="524px" viewBox="0 0 2562 524" version="1.1" xmlns="http://www.w3.org/2000/svg" xmlns:xlink="http://www.w3.org/1999/xlink">
    <title>背景底纹</title>
    <defs>
        <linearGradient x1="50%" y1="0%" x2="50%" y2="100%" id="linearGradient-1">
            <stop stop-color="#93CDF8" stop-opacity="0.319806292" offset="0%"></stop>
            <stop stop-color="#5A9EEF" offset="100%"></stop>
        </linearGradient>
        <linearGradient x1="50%" y1="0%" x2="50%" y2="100%" id="linearGradient-2">
            <stop stop-color="#979797" offset="0%"></stop>
            <stop stop-color="#C8C8C8" stop-opacity="0" offset="100%"></stop>
        </linearGradient>
        <linearGradient x1="44.1980415%" y1="-40.94747%" x2="44.1980415%" y2="151.588533%" id="linearGradient-3">
            <stop stop-color="#7AA0B5" offset="0%"></stop>
            <stop stop-color="#A2A2A2" stop-opacity="0.297283039" offset="100%"></stop>
        </linearGradient>
        <linearGradient x1="44.1980415%" y1="46.3930391%" x2="34.1576137%" y2="56.0925704%" id="linearGradient-4">
            <stop stop-color="#7AA0B5" stop-opacity="0.780832571" offset="0%"></stop>
            <stop stop-color="#A2A2A2" stop-opacity="0.297283039" offset="100%"></stop>
        </linearGradient>
    </defs>
    <g id="页面-1" stroke="none" stroke-width="1" fill="none" fill-rule="evenodd">
        <g id="背景" transform="translate(1.000000, -753.000000)">
            <g id="编组-38" transform="translate(-780.000000, 0.000000)">
                <g id="编组-6" transform="translate(0.000000, 753.000000)">
                    <path d="M1124.62377,260.527623 C1139.72664,260.527623 1152.89143,270.806377 1156.55442,285.458317 L1205.92445,482.938444 C1210.33315,500.573252 1199.61127,518.443047 1181.97646,522.851749 C1179.36576,523.504426 1176.68486,523.83446 1173.9938,523.83446 L475.597973,523.83446 C457.42043,523.83446 442.684619,509.098649 442.684619,490.921105 L442.684619,293.440978 C442.684619,275.263434 457.42043,260.527623 475.597973,260.527623 L1124.62377,260.527623 Z M1969.86427,260.527623 C1988.04181,260.527623 2002.77762,275.263434 2002.77762,293.440978 L2002.77762,490.921105 C2002.77762,509.098649 1988.04181,523.83446 1969.86427,523.83446 L1255.01176,523.83446 C1239.90889,523.83446 1226.7441,513.555705 1223.08112,498.903766 L1173.71109,301.423639 C1169.30239,283.788831 1180.02426,265.919036 1197.65907,261.510334 C1200.26978,260.857657 1202.95068,260.527623 1205.64173,260.527623 L1969.86427,260.527623 Z M2813.07886,260.527623 C2815.76992,260.527623 2818.45081,260.857657 2821.06152,261.510334 C2838.69633,265.919036 2849.41821,283.788831 2845.0095,301.423639 L2795.63947,498.903766 C2791.97649,513.555705 2778.8117,523.83446 2763.70883,523.83446 L2048.85632,523.83446 C2030.67878,523.83446 2015.94297,509.098649 2015.94297,490.921105 L2015.94297,293.440978 C2015.94297,275.263434 2030.67878,260.527623 2048.85632,260.527623 L2813.07886,260.527623 Z M3655.14368,260.527623 C3673.32122,260.527623 3688.05703,275.263434 3688.05703,293.440978 L3688.05703,490.921105 C3688.05703,509.098649 3673.32122,523.83446 3655.14368,523.83446 L2842.80171,523.83446 C2824.62416,523.83446 2809.88835,509.098649 2809.88835,490.921105 C2809.88835,488.216411 2810.22174,485.52203 2810.88097,482.898906 L2860.51094,285.418778 C2864.18836,270.786123 2877.344,260.527623 2892.43167,260.527623 L3655.14368,260.527623 Z M4498.35827,260.527623 C4501.04932,260.527623 4503.73022,260.857657 4506.34093,261.510334 C4523.97574,265.919036 4534.69761,283.788831 4530.28891,301.423639 L4480.91888,498.903766 C4477.2559,513.555705 4464.09111,523.83446 4448.98824,523.83446 L3734.13573,523.83446 C3715.95819,523.83446 3701.22238,509.098649 3701.22238,490.921105 L3701.22238,293.440978 C3701.22238,275.263434 3715.95819,260.527623 3734.13573,260.527623 L4498.35827,260.527623 Z M5228.40203,260.527623 C5246.57957,260.527623 5261.31538,275.263434 5261.31538,293.440978 L5261.31538,490.921105 C5261.31538,509.098649 5246.57957,523.83446 5228.40203,523.83446 L4530.0062,523.83446 C4527.31514,523.83446 4524.63424,523.504426 4522.02354,522.851749 C4504.38873,518.443047 4493.66685,500.573252 4498.07555,482.938444 L4547.44558,285.458317 C4551.10857,270.806377 4564.27336,260.527623 4579.37623,260.527623 L5228.40203,260.527623 Z M2842,484 C2836.54674,484 2832.12599,488.420743 2832.12599,493.874006 C2832.12599,499.32727 2836.54674,503.748013 2842,503.748013 C2847.45326,503.748013 2851.87401,499.32727 2851.87401,493.874006 C2851.87401,488.420743 2847.45326,484 2842,484 Z M2756.01434,484 C2750.56108,484 2746.14034,488.420743 2746.14034,493.874006 C2746.14034,499.32727 2750.56108,503.748013 2756.01434,503.748013 C2761.46761,503.748013 2765.88835,499.32727 2765.88835,493.874006 C2765.88835,488.420743 2761.46761,484 2756.01434,484 Z M1267.16415,482.692766 C1261.71089,482.692766 1257.29014,487.11351 1257.29014,492.566773 C1257.29014,498.020036 1261.71089,502.440779 1267.16415,502.440779 C1272.61741,502.440779 1277.03816,498.020036 1277.03816,492.566773 C1277.03816,487.11351 1272.61741,482.692766 1267.16415,482.692766 Z M4436.83585,482.692766 C4431.38259,482.692766 4426.96184,487.11351 4426.96184,492.566773 C4426.96184,498.020036 4431.38259,502.440779 4436.83585,502.440779 C4442.28911,502.440779 4446.70986,498.020036 4446.70986,492.566773 C4446.70986,487.11351 4442.28911,482.692766 4436.83585,482.692766 Z M5230.04769,482.692766 C5224.59443,482.692766 5220.17369,487.11351 5220.17369,492.566773 C5220.17369,498.020036 5224.59443,502.440779 5230.04769,502.440779 C5235.50096,502.440779 5239.9217,498.020036 5239.9217,492.566773 C5239.9217,487.11351 5235.50096,482.692766 5230.04769,482.692766 Z M4533.93025,482.692766 C4528.47698,482.692766 4524.05624,487.11351 4524.05624,492.566773 C4524.05624,498.020036 4528.47698,502.440779 4533.93025,502.440779 C4539.38351,502.440779 4543.80425,498.020036 4543.80425,492.566773 C4543.80425,487.11351 4539.38351,482.692766 4533.93025,482.692766 Z M3740.7184,482.692766 C3735.26514,482.692766 3730.84439,487.11351 3730.84439,492.566773 C3730.84439,498.020036 3735.26514,502.440779 3740.7184,502.440779 C3746.17166,502.440779 3750.59241,498.020036 3750.59241,492.566773 C3750.59241,487.11351 3746.17166,482.692766 3740.7184,482.692766 Z M3655.14368,482.692766 C3649.69042,482.692766 3645.26967,487.11351 3645.26967,492.566773 C3645.26967,498.020036 3649.69042,502.440779 3655.14368,502.440779 C3660.59694,502.440779 3665.01769,498.020036 3665.01769,492.566773 C3665.01769,487.11351 3660.59694,482.692766 3655.14368,482.692766 Z M2048.85632,482.692766 C2043.40306,482.692766 2038.98231,487.11351 2038.98231,492.566773 C2038.98231,498.020036 2043.40306,502.440779 2048.85632,502.440779 C2054.30958,502.440779 2058.73033,498.020036 2058.73033,492.566773 C2058.73033,487.11351 2054.30958,482.692766 2048.85632,482.692766 Z M1963.2816,482.692766 C1957.82834,482.692766 1953.40759,487.11351 1953.40759,492.566773 C1953.40759,498.020036 1957.82834,502.440779 1963.2816,502.440779 C1968.73486,502.440779 1973.15561,498.020036 1973.15561,492.566773 C1973.15561,487.11351 1968.73486,482.692766 1963.2816,482.692766 Z M1170.06975,482.692766 C1164.61649,482.692766 1160.19575,487.11351 1160.19575,492.566773 C1160.19575,498.020036 1164.61649,502.440779 1170.06975,502.440779 C1175.52302,502.440779 1179.94376,498.020036 1179.94376,492.566773 C1179.94376,487.11351 1175.52302,482.692766 1170.06975,482.692766 Z M473.952306,482.692766 C468.499042,482.692766 464.078299,487.11351 464.078299,492.566773 C464.078299,498.020036 468.499042,502.440779 473.952306,502.440779 C479.405569,502.440779 483.826312,498.020036 483.826312,492.566773 C483.826312,487.11351 479.405569,482.692766 473.952306,482.692766 Z M2800.01434,282 C2794.56108,282 2790.14034,286.420743 2790.14034,291.874006 C2790.14034,297.32727 2794.56108,301.748013 2800.01434,301.748013 C2805.46761,301.748013 2809.88835,297.32727 2809.88835,291.874006 C2809.88835,286.420743 2805.46761,282 2800.01434,282 Z M2044,282 C2038.54674,282 2034.12599,286.420743 2034.12599,291.874006 C2034.12599,297.32727 2038.54674,301.748013 2044,301.748013 C2049.45326,301.748013 2053.87401,297.32727 2053.87401,291.874006 C2053.87401,286.420743 2049.45326,282 2044,282 Z M2896,282 C2890.54674,282 2886.12599,286.420743 2886.12599,291.874006 C2886.12599,297.32727 2890.54674,301.748013 2896,301.748013 C2901.45326,301.748013 2905.87401,297.32727 2905.87401,291.874006 C2905.87401,286.420743 2901.45326,282 2896,282 Z M5230.04769,281.921304 C5224.59443,281.921304 5220.17369,286.342047 5220.17369,291.79531 C5220.17369,297.248573 5224.59443,301.669316 5230.04769,301.669316 C5235.50096,301.669316 5239.9217,297.248573 5239.9217,291.79531 C5239.9217,286.342047 5235.50096,281.921304 5230.04769,281.921304 Z M4589.88295,281.921304 C4584.42969,281.921304 4580.00894,286.342047 4580.00894,291.79531 C4580.00894,297.248573 4584.42969,301.669316 4589.88295,301.669316 C4595.33621,301.669316 4599.75695,297.248573 4599.75695,291.79531 C4599.75695,286.342047 4595.33621,281.921304 4589.88295,281.921304 Z M1963.2816,281.921304 C1957.82834,281.921304 1953.40759,286.342047 1953.40759,291.79531 C1953.40759,297.248573 1957.82834,301.669316 1963.2816,301.669316 C1968.73486,301.669316 1973.15561,297.248573 1973.15561,291.79531 C1973.15561,286.342047 1968.73486,281.921304 1963.2816,281.921304 Z M1114.11705,281.921304 C1108.66379,281.921304 1104.24305,286.342047 1104.24305,291.79531 C1104.24305,297.248573 1108.66379,301.669316 1114.11705,301.669316 C1119.57031,301.669316 1123.99106,297.248573 1123.99106,291.79531 C1123.99106,286.342047 1119.57031,281.921304 1114.11705,281.921304 Z M473.952306,281.921304 C468.499042,281.921304 464.078299,286.342047 464.078299,291.79531 C464.078299,297.248573 468.499042,301.669316 473.952306,301.669316 C479.405569,301.669316 483.826312,297.248573 483.826312,291.79531 C483.826312,286.342047 479.405569,281.921304 473.952306,281.921304 Z M1207.92011,281.921304 C1202.46685,281.921304 1198.04611,286.342047 1198.04611,291.79531 C1198.04611,297.248573 1202.46685,301.669316 1207.92011,301.669316 C1213.37338,301.669316 1217.79412,297.248573 1217.79412,291.79531 C1217.79412,286.342047 1213.37338,281.921304 1207.92011,281.921304 Z M4496.07989,281.921304 C4490.62662,281.921304 4486.20588,286.342047 4486.20588,291.79531 C4486.20588,297.248573 4490.62662,301.669316 4496.07989,301.669316 C4501.53315,301.669316 4505.95389,297.248573 4505.95389,291.79531 C4505.95389,286.342047 4501.53315,281.921304 4496.07989,281.921304 Z M3740.7184,281.921304 C3735.26514,281.921304 3730.84439,286.342047 3730.84439,291.79531 C3730.84439,297.248573 3735.26514,301.669316 3740.7184,301.669316 C3746.17166,301.669316 3750.59241,297.248573 3750.59241,291.79531 C3750.59241,286.342047 3746.17166,281.921304 3740.7184,281.921304 Z M3145.2587,132.16554 C3161.61849,132.16554 3174.88072,145.42777 3174.88072,161.787559 L3174.88072,217.740262 C3174.88072,234.100052 3161.61849,247.362281 3145.2587,247.362281 L1770.73848,247.362281 C1754.37869,247.362281 1741.11646,234.100052 1741.11646,217.740262 L1741.11646,161.787559 C1741.11646,145.42777 1754.37869,132.16554 1770.73848,132.16554 L3145.2587,132.16554 Z M4803.81975,132.16554 C4820.17954,132.16554 4833.44177,145.42777 4833.44177,161.787559 L4833.44177,217.740262 C4833.44177,234.100052 4820.17954,247.362281 4803.81975,247.362281 L4005.6709,247.362281 C3989.31112,247.362281 3976.04889,234.100052 3976.04889,217.740262 L3976.04889,161.787559 C3976.04889,145.42777 3989.31112,132.16554 4005.6709,132.16554 L4803.81975,132.16554 Z M1698.3291,132.16554 C1714.68888,132.16554 1727.95111,145.42777 1727.95111,161.787559 L1727.95111,217.740262 C1727.95111,234.100052 1714.68888,247.362281 1698.3291,247.362281 L900.180247,247.362281 C883.820458,247.362281 870.558228,234.100052 870.558228,217.740262 L870.558228,161.787559 C870.558228,145.42777 883.820458,132.16554 900.180247,132.16554 L1698.3291,132.16554 Z M5674.37798,132.16554 C5690.73777,132.16554 5704,145.42777 5704,161.787559 L5704,217.740262 C5704,234.100052 5690.73777,247.362281 5674.37798,247.362281 L4876.22913,247.362281 C4859.86934,247.362281 4846.60711,234.100052 4846.60711,217.740262 L4846.60711,161.787559 C4846.60711,145.42777 4859.86934,132.16554 4876.22913,132.16554 L5674.37798,132.16554 Z M827.770867,132.16554 C844.130656,132.16554 857.392886,145.42777 857.392886,161.787559 L857.392886,217.740262 C857.392886,234.100052 844.130656,247.362281 827.770867,247.362281 L29.6220191,247.362281 C13.2622297,247.362281 3.04252058e-14,234.100052 0,217.740262 L0,161.787559 C5.10193098e-15,145.42777 13.2622297,132.16554 29.6220191,132.16554 L827.770867,132.16554 Z M3933.26152,132.16554 C3949.62131,132.16554 3962.88354,145.42777 3962.88354,161.787559 L3962.88354,217.740262 C3962.88354,234.100052 3949.62131,247.362281 3933.26152,247.362281 L3212.45906,247.362281 C3196.09927,247.362281 3182.83704,234.100052 3182.83704,217.740262 L3182.83704,161.787559 C3182.83704,145.42777 3196.09927,132.16554 3212.45906,132.16554 L3933.26152,132.16554 Z M1775.67548,211.157591 C1770.22222,211.157591 1765.80147,215.578335 1765.80147,221.031598 C1765.80147,226.484861 1770.22222,230.905604 1775.67548,230.905604 C1781.12874,230.905604 1785.54948,226.484861 1785.54948,221.031598 C1785.54948,215.578335 1781.12874,211.157591 1775.67548,211.157591 Z M900.180247,211.157591 C894.726984,211.157591 890.306241,215.578335 890.306241,221.031598 C890.306241,226.484861 894.726984,230.905604 900.180247,230.905604 C905.63351,230.905604 910.054253,226.484861 910.054253,221.031598 C910.054253,215.578335 905.63351,211.157591 900.180247,211.157591 Z M1696.68343,211.157591 C1691.23016,211.157591 1686.80942,215.578335 1686.80942,221.031598 C1686.80942,226.484861 1691.23016,230.905604 1696.68343,230.905604 C1702.13669,230.905604 1706.55743,226.484861 1706.55743,221.031598 C1706.55743,215.578335 1702.13669,211.157591 1696.68343,211.157591 Z M4803.81975,211.157591 C4798.36649,211.157591 4793.94575,215.578335 4793.94575,221.031598 C4793.94575,226.484861 4798.36649,230.905604 4803.81975,230.905604 C4809.27302,230.905604 4813.69376,226.484861 4813.69376,221.031598 C4813.69376,215.578335 4809.27302,211.157591 4803.81975,211.157591 Z M3214.10473,211.157591 C3208.65146,211.157591 3204.23072,215.578335 3204.23072,221.031598 C3204.23072,226.484861 3208.65146,230.905604 3214.10473,230.905604 C3219.55799,230.905604 3223.97873,226.484861 3223.97873,221.031598 C3223.97873,215.578335 3219.55799,211.157591 3214.10473,211.157591 Z M4007.31657,211.157591 C4001.86331,211.157591 3997.44257,215.578335 3997.44257,221.031598 C3997.44257,226.484861 4001.86331,230.905604 4007.31657,230.905604 C4012.76984,230.905604 4017.19058,226.484861 4017.19058,221.031598 C4017.19058,215.578335 4012.76984,211.157591 4007.31657,211.157591 Z M824.479532,211.157591 C819.026268,211.157591 814.605525,215.578335 814.605525,221.031598 C814.605525,226.484861 819.026268,230.905604 824.479532,230.905604 C829.932795,230.905604 834.353538,226.484861 834.353538,221.031598 C834.353538,215.578335 829.932795,211.157591 824.479532,211.157591 Z M3143.61303,211.157591 C3138.15977,211.157591 3133.73902,215.578335 3133.73902,221.031598 C3133.73902,226.484861 3138.15977,230.905604 3143.61303,230.905604 C3149.06629,230.905604 3153.48704,226.484861 3153.48704,221.031598 C3153.48704,215.578335 3149.06629,211.157591 3143.61303,211.157591 Z M3928.32452,211.157591 C3922.87126,211.157591 3918.45052,215.578335 3918.45052,221.031598 C3918.45052,226.484861 3922.87126,230.905604 3928.32452,230.905604 C3933.77778,230.905604 3938.19853,226.484861 3938.19853,221.031598 C3938.19853,215.578335 3933.77778,211.157591 3928.32452,211.157591 Z M4879.52047,211.157591 C4874.06721,211.157591 4869.64646,215.578335 4869.64646,221.031598 C4869.64646,226.484861 4874.06721,230.905604 4879.52047,230.905604 C4884.97373,230.905604 4889.39447,226.484861 4889.39447,221.031598 C4889.39447,215.578335 4884.97373,211.157591 4879.52047,211.157591 Z M1696.68343,151.913553 C1691.23016,151.913553 1686.80942,156.334296 1686.80942,161.787559 C1686.80942,167.240823 1691.23016,171.661566 1696.68343,171.661566 C1702.13669,171.661566 1706.55743,167.240823 1706.55743,161.787559 C1706.55743,156.334296 1702.13669,151.913553 1696.68343,151.913553 Z M3143.61303,151.913553 C3138.15977,151.913553 3133.73902,156.334296 3133.73902,161.787559 C3133.73902,167.240823 3138.15977,171.661566 3143.61303,171.661566 C3149.06629,171.661566 3153.48704,167.240823 3153.48704,161.787559 C3153.48704,156.334296 3149.06629,151.913553 3143.61303,151.913553 Z M824.479532,151.913553 C819.026268,151.913553 814.605525,156.334296 814.605525,161.787559 C814.605525,167.240823 819.026268,171.661566 824.479532,171.661566 C829.932795,171.661566 834.353538,167.240823 834.353538,161.787559 C834.353538,156.334296 829.932795,151.913553 824.479532,151.913553 Z M900.180247,151.913553 C894.726984,151.913553 890.306241,156.334296 890.306241,161.787559 C890.306241,167.240823 894.726984,171.661566 900.180247,171.661566 C905.63351,171.661566 910.054253,167.240823 910.054253,161.787559 C910.054253,156.334296 905.63351,151.913553 900.180247,151.913553 Z M1775.67548,151.913553 C1770.22222,151.913553 1765.80147,156.334296 1765.80147,161.787559 C1765.80147,167.240823 1770.22222,171.661566 1775.67548,171.661566 C1781.12874,171.661566 1785.54948,167.240823 1785.54948,161.787559 C1785.54948,156.334296 1781.12874,151.913553 1775.67548,151.913553 Z M3928.32452,151.913553 C3922.87126,151.913553 3918.45052,156.334296 3918.45052,161.787559 C3918.45052,167.240823 3922.87126,171.661566 3928.32452,171.661566 C3933.77778,171.661566 3938.19853,167.240823 3938.19853,161.787559 C3938.19853,156.334296 3933.77778,151.913553 3928.32452,151.913553 Z M4803.81975,151.913553 C4798.36649,151.913553 4793.94575,156.334296 4793.94575,161.787559 C4793.94575,167.240823 4798.36649,171.661566 4803.81975,171.661566 C4809.27302,171.661566 4813.69376,167.240823 4813.69376,161.787559 C4813.69376,156.334296 4809.27302,151.913553 4803.81975,151.913553 Z M4879.52047,151.913553 C4874.06721,151.913553 4869.64646,156.334296 4869.64646,161.787559 C4869.64646,167.240823 4874.06721,171.661566 4879.52047,171.661566 C4884.97373,171.661566 4889.39447,167.240823 4889.39447,161.787559 C4889.39447,156.334296 4884.97373,151.913553 4879.52047,151.913553 Z M3214.10473,151.913553 C3208.65146,151.913553 3204.23072,156.334296 3204.23072,161.787559 C3204.23072,167.240823 3208.65146,171.661566 3214.10473,171.661566 C3219.55799,171.661566 3223.97873,167.240823 3223.97873,161.787559 C3223.97873,156.334296 3219.55799,151.913553 3214.10473,151.913553 Z M4007.31657,151.913553 C4001.86331,151.913553 3997.44257,156.334296 3997.44257,161.787559 C3997.44257,167.240823 4001.86331,171.661566 4007.31657,171.661566 C4012.76984,171.661566 4017.19058,167.240823 4017.19058,161.787559 C4017.19058,156.334296 4012.76984,151.913553 4007.31657,151.913553 Z" id="形状结合" fill="url(#linearGradient-1)" opacity="0.140885126" style="mix-blend-mode: screen;"></path>
                    <path d="M3655.14368,262.527623 C3663.68017,262.527623 3671.4085,265.987718 3677.00272,271.581935 C3682.59694,277.176152 3686.05703,284.904491 3686.05703,293.440978 L3686.05703,490.921105 C3686.05703,499.457592 3682.59694,507.185931 3677.00272,512.780148 C3671.4085,518.374365 3663.68017,521.83446 3655.14368,521.83446 L2842.80171,521.83446 C2834.26522,521.83446 2826.53688,518.374365 2820.94266,512.780148 C2815.34845,507.185931 2811.88835,499.457592 2811.88835,490.921105 C2811.88835,488.380763 2812.20148,485.850108 2812.82065,483.386379 L2862.45062,285.906252 C2864.1776,279.034506 2868.13015,273.189848 2873.42231,269.063128 C2878.71447,264.936407 2885.34624,262.527623 2892.43167,262.527623 Z" id="矩形备份-5" stroke="url(#linearGradient-2)" stroke-width="4" opacity="0.92683556" style="mix-blend-mode: overlay;"></path>
                    <path d="M2927.786,410.760838 L2979.78733,458.817986 L2927.788,506.872676 L2865.564,506.872676 L2917.56193,458.817986 L2865.56,410.760838 L2927.786,410.760838 Z M3029.786,410.760838 L3081.78733,458.817986 L3029.788,506.872676 L2967.564,506.872676 L3019.56193,458.817986 L2967.56,410.760838 L3029.786,410.760838 Z M3131.786,410.760838 L3183.78733,458.817986 L3131.788,506.872676 L3069.564,506.872676 L3121.56193,458.817986 L3069.56,410.760838 L3131.786,410.760838 Z M3233.786,410.760838 L3285.78733,458.817986 L3233.788,506.872676 L3171.564,506.872676 L3223.56193,458.817986 L3171.56,410.760838 L3233.786,410.760838 Z M3335.786,410.760838 L3387.78733,458.817986 L3335.788,506.872676 L3273.564,506.872676 L3325.56193,458.817986 L3273.56,410.760838 L3335.786,410.760838 Z" id="形状结合" fill="url(#linearGradient-3)" fill-rule="nonzero" opacity="0.47996085"></path>
                    <path d="M553.99767,0.166540398 L605.998,52.1668706 L553.99767,104.16654 L491.77367,104.16654 L543.772603,52.1668706 L491.77267,0.166540398 L553.99767,0.166540398 Z M655.99767,0.166540398 L707.998,52.1668706 L655.99767,104.16654 L593.77367,104.16654 L645.772603,52.1668706 L593.77267,0.166540398 L655.99767,0.166540398 Z M757.99767,0.166540398 L809.998,52.1668706 L757.99767,104.16654 L695.77367,104.16654 L747.772603,52.1668706 L695.77167,0.166540398 L757.99767,0.166540398 Z M859.99767,0.166540398 L911.998,52.1668706 L859.99767,104.16654 L797.77367,104.16654 L849.772603,52.1668706 L797.77167,0.166540398 L859.99767,0.166540398 Z M961.99767,0.166540398 L1013.998,52.1668706 L961.99767,104.16654 L899.77367,104.16654 L951.772603,52.1668706 L899.77167,0.166540398 L961.99767,0.166540398 Z" id="形状结合备份-10" fill="url(#linearGradient-4)" fill-rule="nonzero" opacity="0.528156825" transform="translate(752.885335, 52.166540) scale(-1, 1) translate(-752.885335, -52.166540) "></path>
                </g>
            </g>
        </g>
    </g>
</svg>